<svg width="30" height="30" viewBox="0 0 30 30" fill="none" xmlns="http://www.w3.org/2000/svg">
<path d="M15 8.4375C15 8.4375 15 8.4375 15.95 7.1875C17.05 5.7375 18.675 4.6875 20.625 4.6875C23.7375 4.6875 26.25 7.2 26.25 10.3125C26.25 11.475 25.9 12.55 25.3 13.4375C24.2875 14.95 15 24.6875 15 24.6875C15 24.6875 5.7125 14.95 4.7 13.4375C4.1 12.55 3.75 11.475 3.75 10.3125C3.75 7.2 6.2625 4.6875 9.375 4.6875C11.325 4.6875 12.9625 5.7375 14.05 7.1875C15 8.4375 15 8.4375 15 8.4375Z" fill="white" fill-opacity="0.8"/>
<path fill-rule="evenodd" clip-rule="evenodd" d="M15.015 6.96501L13.6563 5.60626C13.0194 4.96083 12.2612 4.44776 11.4253 4.09657C10.5893 3.74538 9.69219 3.56301 8.78548 3.55998C7.87877 3.55694 6.98042 3.73329 6.14215 4.07887C5.30387 4.42445 4.54224 4.93243 3.90109 5.57358C3.25995 6.21472 2.75196 6.97636 2.40638 7.81463C2.0608 8.65291 1.88445 9.55126 1.88749 10.458C1.89053 11.3647 2.07289 12.2618 2.42408 13.0978C2.77527 13.9337 3.28835 14.6919 3.93377 15.3288L14.9825 26.3775L14.985 26.375L15.0175 26.4075L26.0663 15.3588C26.7117 14.7219 27.2248 13.9637 27.576 13.1278C27.9272 12.2918 28.1095 11.3947 28.1126 10.488C28.1156 9.58126 27.9392 8.68291 27.5937 7.84463C27.2481 7.00636 26.7401 6.24472 26.099 5.60358C25.4578 4.96243 24.6962 4.45445 23.8579 4.10887C23.0196 3.76329 22.1213 3.58694 21.2146 3.58998C20.3079 3.59301 19.4107 3.77538 18.5748 4.12657C17.7388 4.47776 16.9806 4.99083 16.3438 5.63626L15.015 6.96501ZM14.985 22.84L21.155 16.6688L22.9675 14.9188H22.97L24.2988 13.5913C25.1193 12.7707 25.5802 11.6579 25.5802 10.4975C25.5802 9.33713 25.1193 8.22427 24.2988 7.40376C23.4783 6.58324 22.3654 6.12229 21.205 6.12229C20.0446 6.12229 18.9318 6.58324 18.1113 7.40376L15.0163 10.5L15.0075 10.4913L11.8888 7.37501C11.0683 6.55449 9.9554 6.09354 8.79502 6.09354C7.63464 6.09354 6.52179 6.55449 5.70127 7.37501C4.88076 8.19552 4.4198 9.30838 4.4198 10.4688C4.4198 11.6291 4.88076 12.742 5.70127 13.5625L8.87627 16.7375L8.87752 16.7338L14.985 22.84Z" fill="black"/>
</svg>
